HIERARCHY
ROOT root
{
	OFFSET 0.000000 0.000000 0.000000
	CHANNELS 6 Xposition Yposition Zposition Zrotation Yrotation Xrotation
	JOINT lhip
	{
		OFFSET 0.058581 -0.082280 -0.017664
		CHANNELS 3 Zrotation Yrotation Xrotation
		JOINT lknee
		{
			OFFSET 0.043451 -0.386469 0.008037
			CHANNELS 3 Zrotation Yrotation Xrotation
			JOINT lankle
			{
				OFFSET -0.014790 -0.426874 -0.037428
				CHANNELS 3 Zrotation Yrotation Xrotation
				JOINT ltoe
				{
					OFFSET 0.041054 -0.060286 0.122042
					CHANNELS 3 Zrotation Yrotation Xrotation
					End Site
					{
						OFFSET 0.000000 0.000000 0.000000
					}
				}
			}
		}
	}
	JOINT rhip
	{
		OFFSET -0.060310 -0.090513 -0.013543
		CHANNELS 3 Zrotation Yrotation Xrotation
		JOINT rknee
		{
			OFFSET -0.043257 -0.383688 -0.004843
			CHANNELS 3 Zrotation Yrotation Xrotation
			JOINT rankle
			{
				OFFSET 0.019056 -0.420046 -0.034562
				CHANNELS 3 Zrotation Yrotation Xrotation
				JOINT rtoe
				{
					OFFSET -0.034840 -0.062106 0.130323
					CHANNELS 3 Zrotation Yrotation Xrotation
					End Site
					{
						OFFSET 0.000000 0.000000 0.000000
					}
				}
			}
		}
	}
	JOINT lowerback
	{
		OFFSET 0.004439 0.124404 -0.038385
		CHANNELS 3 Zrotation Yrotation Xrotation
		JOINT upperback
		{
			OFFSET 0.004488 0.137956 0.026820
			CHANNELS 3 Zrotation Yrotation Xrotation
			JOINT chest
			{
				OFFSET -0.002265 0.056032 0.002855
				CHANNELS 3 Zrotation Yrotation Xrotation
				JOINT lowerneck
				{
					OFFSET -0.013390 0.211636 -0.033468
					CHANNELS 3 Zrotation Yrotation Xrotation
					JOINT upperneck
					{
						OFFSET 0.010113 0.088937 0.050410
						CHANNELS 3 Zrotation Yrotation Xrotation
						End Site
						{
							OFFSET 0.000000 0.000000 0.000000
						}
					}
				}
				JOINT lclavicle
				{
					OFFSET 0.071702 0.114000 -0.018898
					CHANNELS 3 Zrotation Yrotation Xrotation
					JOINT lshoulder
					{
						OFFSET 0.122921 0.045205 -0.019046
						CHANNELS 3 Zrotation Yrotation Xrotation
						JOINT lelbow
						{
							OFFSET 0.255332 -0.015649 -0.022946
							CHANNELS 3 Zrotation Yrotation Xrotation
							JOINT lwrist
							{
								OFFSET 0.265709 0.012698 -0.007375
								CHANNELS 3 Zrotation Yrotation Xrotation
								End Site
								{
									OFFSET 0.000000 0.000000 0.000000
								}
							}
						}
					}
				}
				JOINT rclavicle
				{
					OFFSET -0.082954 0.112472 -0.023707
					CHANNELS 3 Zrotation Yrotation Xrotation
					JOINT rshoulder
					{
						OFFSET -0.113228 0.046853 -0.008472
						CHANNELS 3 Zrotation Yrotation Xrotation
						JOINT relbow
						{
							OFFSET -0.260127 -0.014369 -0.031269
							CHANNELS 3 Zrotation Yrotation Xrotation
							JOINT rwrist
							{
								OFFSET -0.269108 0.006794 -0.006027
								CHANNELS 3 Zrotation Yrotation Xrotation
								End Site
								{
									OFFSET 0.000000 0.000000 0.000000
								}
							}
						}
					}
				}
			}
		}
	}
}
MOTION
Frames: 13
Frame Time: 0.033333
-1.266152 0.701735 0.993405 -177.147253 1.672973 84.934513 -0.623498 0.670424 7.459118 -1.242389 -10.645627 4.265450 2.552801 7.085651 -11.783076 0.000000 -0.000000 0.000000 3.040755 -4.961868 3.921102 1.442336 -3.314498 9.615637 1.304246 -8.179023 -11.148163 0.000000 -0.000000 0.000000 2.781083 0.835591 8.569937 0.080430 -0.342304 -1.316128 0.224543 -0.285676 1.521618 -0.418711 4.979345 -11.038850 -2.048300 1.307969 3.510649 -28.035932 1.243801 1.769024 -56.894299 -4.225513 9.495462 7.007508 -24.194053 9.649656 -5.295134 -4.674128 -3.862383 26.705951 4.110753 2.659219 55.383245 4.960910 12.472345 -11.915058 19.039798 -5.288782 5.331513 4.231603 -6.139572 
-1.266525 0.702487 0.993465 -177.102736 1.669670 84.951330 -0.547979 0.759664 7.578092 -1.421862 -10.158300 3.866086 2.611312 7.166822 -12.515137 0.000000 -0.000000 0.000000 2.991325 -4.829845 3.980462 1.461661 -3.375300 9.832407 1.294357 -8.219774 -11.198718 0.000000 -0.000000 0.000000 2.657325 0.670549 8.253385 0.128673 -0.315719 -0.994764 0.322783 -0.200093 1.553267 -0.219834 5.097298 -11.188693 -2.332232 1.234294 3.780783 -28.181906 1.278094 1.650226 -57.045951 -4.362200 9.539146 6.955858 -24.299975 9.635473 -5.454968 -4.650874 -3.738417 26.622205 4.153183 2.721831 55.536183 5.183215 12.577818 -11.778455 18.851686 -5.471821 5.320313 4.222538 -6.230741 
-1.267264 0.702979 0.993048 -177.166210 1.512979 85.081734 -0.741529 0.555722 7.471533 -1.464193 -10.687207 4.168532 2.826718 7.099155 -11.992450 0.000000 -0.000000 0.000000 2.763583 -4.613740 3.848511 1.547772 -3.481704 9.868418 1.527457 -8.287807 -11.468761 0.000000 -0.000000 0.000000 2.559262 0.683565 8.242732 0.152574 -0.355247 -1.126594 0.230048 -0.063023 1.430042 -0.454332 4.958212 -10.809188 -2.108761 1.150973 3.734190 -28.182692 1.305022 1.762467 -57.277982 -4.397535 9.688442 6.998111 -24.749326 9.904123 -5.414178 -4.725421 -4.096980 26.592219 4.180755 2.863330 55.713370 4.967292 12.672765 -11.844814 19.307550 -5.025619 5.337684 4.087314 -6.356768 
-1.267476 0.703842 0.992429 -177.159614 1.576403 85.207857 -0.586992 0.346414 7.384851 -1.620292 -10.453929 4.147402 2.797123 7.024233 -12.048278 0.000000 -0.000000 0.000000 2.815150 -4.550712 3.775182 1.651114 -3.533128 9.766704 1.286824 -8.487603 -11.330732 0.000000 -0.000000 0.000000 2.629028 0.617909 8.129503 0.188683 -0.323269 -1.252838 0.199693 -0.007011 1.449156 -0.407278 4.929454 -10.447634 -2.054610 1.309919 3.988419 -28.429352 1.259810 1.812749 -57.247976 -4.542374 9.828729 6.981861 -25.133081 9.955960 -5.681181 -4.857796 -4.068729 26.651192 4.059943 2.902453 55.968258 4.824619 12.870176 -11.799834 20.044864 -5.011466 5.651522 3.982345 -6.479839 
-1.267228 0.704219 0.992147 -177.088782 1.527321 85.254772 -0.533892 0.246103 7.309964 -1.787020 -10.366124 4.280117 2.905610 6.898594 -12.118798 0.000000 -0.000000 0.000000 2.777055 -4.549673 3.723030 1.630338 -3.685360 9.993289 1.367888 -8.388432 -11.620443 0.000000 -0.000000 0.000000 2.488392 0.652918 8.161073 0.220811 -0.324111 -1.333046 0.213673 -0.051572 1.378643 -0.254640 4.830842 -10.206734 -2.083228 1.109497 4.218303 -28.370395 1.265914 1.851051 -57.423867 -4.621447 9.864017 7.070226 -25.474712 10.218332 -5.906580 -4.805448 -3.917320 26.611708 3.846618 2.946094 56.461057 4.757608 12.927926 -12.056520 20.604098 -4.805271 5.654255 4.256750 -6.452896 
-1.266726 0.704653 0.991700 -177.242581 1.477037 85.324317 -0.443373 0.280625 7.233794 -1.936111 -10.418349 4.429639 2.976171 6.798425 -12.206814 0.000000 -0.000000 0.000000 2.698449 -4.520836 3.386433 1.711606 -3.620125 10.522699 1.446934 -8.317334 -12.149791 0.000000 -0.000000 0.000000 2.315157 0.744801 8.203555 0.258285 -0.295836 -1.501713 0.218692 -0.066393 1.364481 -0.285764 4.767438 -10.027148 -2.070239 0.782939 4.686451 -28.366683 1.279649 1.854073 -57.495731 -4.747530 9.897720 7.032565 -25.746058 10.008480 -5.556397 -4.869952 -4.159723 26.815936 3.636418 2.856350 56.639260 4.601137 13.213362 -11.878070 21.315853 -4.198149 5.900313 4.413018 -6.278918 
-1.265603 0.705313 0.991206 -177.532019 1.465358 85.271565 -0.316238 0.444737 7.339671 -2.074204 -10.137549 4.396572 2.930490 6.946383 -12.558612 0.000000 -0.000000 0.000000 2.759706 -4.365028 3.066834 1.707479 -3.616095 11.335469 1.260422 -8.336943 -12.528257 0.000000 -0.000000 0.000000 2.072051 0.812206 8.268852 0.324599 -0.220604 -1.469422 0.253063 -0.136555 1.362060 0.047415 4.924009 -9.888296 -2.058502 0.594117 5.122294 -28.371783 1.289732 1.876377 -57.394794 -4.784938 9.940896 7.111698 -26.158441 10.204289 -5.705293 -4.876474 -3.957831 27.267576 3.651388 2.854632 56.799571 4.606722 13.495912 -12.156226 21.676230 -3.847671 5.859425 4.458397 -6.031142 
-1.264031 0.706042 0.990572 -177.627107 1.457165 85.129246 -0.073731 0.615256 7.421554 -2.342944 -10.184183 4.714566 3.049831 6.894336 -12.925257 0.000000 -0.000000 0.000000 2.830556 -4.214167 2.967093 1.821003 -3.507787 11.926006 1.102677 -8.389897 -13.189554 0.000000 -0.000000 0.000000 1.689129 0.713112 8.495563 0.440376 -0.254784 -1.438422 0.394527 -0.176671 1.382089 0.137592 5.066961 -9.688384 -1.919710 0.549082 5.384725 -28.363383 1.260855 1.824241 -57.397630 -5.013259 9.880032 7.078997 -26.207665 9.798418 -5.336732 -4.770686 -4.092517 27.474115 3.735414 2.748506 57.087022 4.759080 13.663197 -11.883972 21.927423 -3.739992 6.186297 4.248675 -6.145606 
-1.260820 0.708883 0.990199 -177.996165 1.448208 84.294812 0.430728 2.100054 7.606384 -2.702003 -11.383877 6.475926 2.396595 6.917622 -14.076794 0.000000 -0.000000 0.000000 2.554118 -5.891986 3.465405 -1.816196 -0.788621 16.604661 5.186945 -0.146228 -15.015290 0.000000 -0.000000 0.000000 1.677760 0.658849 9.612178 0.157796 -0.180211 -1.802583 0.406432 -0.148561 1.857874 0.477929 6.066054 -9.707222 -2.143918 -0.411283 5.927495 -28.157793 1.139402 1.296860 -57.390010 -4.999207 9.299839 6.991180 -26.253025 9.421695 -4.817798 -4.404877 -2.855703 27.769051 3.935645 2.498248 57.040529 4.835504 12.972278 -10.711568 22.141740 -3.156407 6.091746 4.713173 -5.707336 
-1.258437 0.709474 0.987642 -178.034127 1.415313 84.649220 0.087902 0.160388 5.184683 -3.174350 -9.534122 10.500808 3.362443 7.781394 -15.117212 0.000000 -0.000000 0.000000 2.892665 -4.206877 3.323555 2.218052 -2.914138 13.078675 1.215801 -8.428018 -14.328463 0.000000 -0.000000 0.000000 1.237288 0.980709 9.046448 0.570981 -0.448732 -1.237167 0.352931 -0.202685 1.807043 0.316802 5.041377 -9.300812 -1.827196 0.331245 6.458735 -28.356610 0.944041 1.928335 -56.906455 -5.403424 9.746990 7.746679 -26.943428 9.620275 -5.572723 -4.216466 -3.593236 28.198036 3.929889 2.619641 57.568708 4.934859 13.965286 -11.584903 22.373605 -3.355198 6.280257 4.394491 -5.747072 
-1.255713 0.711063 0.986715 -177.905771 1.687825 84.015694 0.228079 -0.320720 3.484402 -3.507189 -8.727961 15.306481 3.032084 8.144134 -15.993844 0.000000 -0.000000 0.000000 3.341793 -4.489001 4.004823 2.048152 -2.747431 13.351647 0.865596 -7.973770 -15.079488 0.000000 -0.000000 0.000000 1.519000 1.071794 9.978191 0.601753 -0.862183 -1.377908 0.324141 -0.349367 2.036862 0.418519 5.052494 -8.957541 -1.840163 0.429871 7.028513 -28.304961 0.790288 1.791998 -56.843342 -5.392940 9.524979 7.974402 -27.304341 9.161282 -5.744154 -4.163369 -3.931243 28.070031 4.294538 2.753903 58.041236 4.935587 14.031548 -11.545971 22.723178 -2.869684 6.609689 4.266726 -5.786056 
-1.252945 0.712323 0.985065 -178.230141 1.844041 83.694014 0.312023 -0.681446 0.409112 -4.094831 -7.341991 21.992768 2.368932 8.263089 -15.835906 0.000000 -0.000000 0.000000 3.720169 -4.293390 4.339279 2.063076 -2.477529 13.493726 0.397418 -8.026375 -15.539636 0.000000 -0.000000 0.000000 1.625911 1.620713 10.823241 0.803043 -0.926261 -1.736716 0.400584 -0.375173 2.345927 0.273831 4.963998 -8.784181 -1.798721 0.258587 8.062618 -28.216087 0.291132 1.654465 -56.693710 -5.818905 9.609147 7.451059 -26.736371 9.329696 -5.176549 -4.432205 -4.372337 28.124988 4.236289 2.670587 57.948777 4.867430 14.253571 -11.371451 23.083368 -2.432973 6.101237 4.400821 -6.374248 
-1.249045 0.714860 0.984004 -178.140028 2.049917 82.517657 1.023510 -0.602905 -3.119070 -5.208673 -5.885304 30.817958 0.979127 7.185314 -13.186194 0.000000 -0.000000 0.000000 3.968005 -5.094638 5.940816 2.167449 -2.358790 13.022022 -0.264670 -7.619344 -15.680491 0.000000 -0.000000 0.000000 1.647979 1.951066 12.394910 1.009959 -1.401590 -1.600340 0.520250 -0.185096 2.526586 0.095007 4.558603 -8.360901 -1.452596 0.271058 8.690534 -28.339316 -0.025686 1.542180 -56.348249 -6.093453 9.186533 7.455733 -27.058191 9.031281 -4.814284 -4.378099 -4.845975 28.115403 4.577534 2.677961 57.536412 4.859419 14.058170 -10.470421 23.549385 -1.605860 5.835996 4.383382 -6.524882 
